<svg width="14" height="14" viewBox="0 0 14 14" fill="none" xmlns="http://www.w3.org/2000/svg">
<path fill-rule="evenodd" clip-rule="evenodd" d="M7.29159 2.33334C4.71426 2.33334 2.62492 4.42268 2.62492 7C2.62492 9.57733 4.71426 11.6667 7.29159 11.6667C9.86891 11.6667 11.9583 9.57733 11.9583 7C11.9583 4.42268 9.86891 2.33334 7.29159 2.33334ZM1.45825 7C1.45825 3.77834 4.06992 1.16667 7.29159 1.16667C10.5132 1.16667 13.1249 3.77834 13.1249 7C13.1249 10.2217 10.5132 12.8333 7.29159 12.8333C4.06992 12.8333 1.45825 10.2217 1.45825 7ZM7.29159 4.32885C7.61375 4.32885 7.87492 4.59001 7.87492 4.91218V7.23581L9.4448 7.75911C9.75043 7.86098 9.91561 8.19134 9.81373 8.49697C9.71186 8.8026 9.3815 8.96778 9.07587 8.8659L7.10712 8.20965C6.86892 8.13025 6.70825 7.90734 6.70825 7.65625V4.91218C6.70825 4.59001 6.96942 4.32885 7.29159 4.32885Z" fill="currentColor"/>
</svg>
