<svg width="20" height="20" viewBox="0 0 20 20" fill="none" xmlns="http://www.w3.org/2000/svg">
<path fill-rule="evenodd" clip-rule="evenodd" d="M10.0049 3.337C6.32229 3.337 3.33692 6.32237 3.33692 10.005C3.33692 13.6876 6.32229 16.673 10.0049 16.673C13.6876 16.673 16.6729 13.6876 16.6729 10.005C16.6729 6.32237 13.6876 3.337 10.0049 3.337ZM1.66992 10.005C1.66992 5.40171 5.40163 1.67 10.0049 1.67C14.6082 1.67 18.3399 5.40171 18.3399 10.005C18.3399 14.6083 14.6082 18.34 10.0049 18.34C5.40163 18.34 1.66992 14.6083 1.66992 10.005ZM10.0049 8.75477C10.8384 8.75477 11.2552 9.17152 11.2552 10.005C11.2552 10.8385 10.8384 11.2553 10.0049 11.2553C9.17142 11.2553 8.75467 10.8385 8.75467 10.005C8.75467 9.17152 9.17142 8.75477 10.0049 8.75477Z" fill="currentColor"/>
</svg>
