<svg width="20" height="20" viewBox="0 0 20 20" fill="none" xmlns="http://www.w3.org/2000/svg">
<path fill-rule="evenodd" clip-rule="evenodd" d="M5.31251 3.33341C4.21944 3.33341 3.33334 4.21952 3.33334 5.31257V14.6876C3.33334 15.7806 4.21944 16.6667 5.31251 16.6667H14.6875C15.7806 16.6667 16.6667 15.7806 16.6667 14.6876V10.4688C16.6667 10.0085 17.0398 9.63545 17.5 9.63545C17.9602 9.63545 18.3333 10.0085 18.3333 10.4688V14.6876C18.3333 16.7011 16.701 18.3334 14.6875 18.3334H5.31251C3.29897 18.3334 1.66667 16.7011 1.66667 14.6876V5.31257C1.66667 3.29903 3.29897 1.66675 5.31251 1.66675H9.0625C9.52274 1.66675 9.89584 2.03984 9.89584 2.50008C9.89584 2.96032 9.52274 3.33341 9.0625 3.33341H5.31251ZM15.1563 3.33341C14.3221 3.33341 13.6458 4.00965 13.6458 4.84382C13.6458 5.67799 14.3221 6.35422 15.1563 6.35422C15.9904 6.35422 16.6667 5.67799 16.6667 4.84382C16.6667 4.00965 15.9904 3.33341 15.1563 3.33341ZM11.9792 4.84382C11.9792 3.08917 13.4016 1.66675 15.1563 1.66675C16.9109 1.66675 18.3333 3.08917 18.3333 4.84382C18.3333 6.59847 16.9109 8.02089 15.1563 8.02089C13.4016 8.02089 11.9792 6.59847 11.9792 4.84382Z" fill="currentColor"/>
</svg>
