<svg width="151" height="26" viewBox="0 0 151 26" fill="none" xmlns="http://www.w3.org/2000/svg">
    <path
        d="M20.3995 22.6L20.3998 19.0003C20.4 17.012 18.7881 15.4 16.7998 15.4H7.2005C5.21244 15.4 3.60073 17.0116 3.6005 18.9996L3.6001 22.6M15.6001 7.00002C15.6001 8.98825 13.9883 10.6 12.0001 10.6C10.0119 10.6 8.4001 8.98825 8.4001 7.00002C8.4001 5.0118 10.0119 3.40002 12.0001 3.40002C13.9883 3.40002 15.6001 5.0118 15.6001 7.00002Z"
        stroke="currentColor" stroke-width="2" stroke-linecap="round" stroke-linejoin="round" />
    <path
        d="M42.6193 15.3295V10.2727H44.6761V19H42.6818V17.4489H42.5909C42.3939 17.9375 42.0701 18.3371 41.6193 18.6477C41.1723 18.9583 40.6212 19.1136 39.9659 19.1136C39.3939 19.1136 38.8883 18.9867 38.4489 18.733C38.0133 18.4754 37.6723 18.1023 37.4261 17.6136C37.1799 17.1212 37.0568 16.5265 37.0568 15.8295V10.2727H39.1136V15.5114C39.1136 16.0644 39.2652 16.5038 39.5682 16.8295C39.8712 17.1553 40.2689 17.3182 40.7614 17.3182C41.0644 17.3182 41.358 17.2443 41.642 17.0966C41.9261 16.9489 42.1591 16.7292 42.3409 16.4375C42.5265 16.142 42.6193 15.7727 42.6193 15.3295ZM53.5089 12.5795L51.6339 12.7841C51.5809 12.5947 51.4881 12.4167 51.3555 12.25C51.2267 12.0833 51.0525 11.9489 50.8328 11.8466C50.6131 11.7443 50.3441 11.6932 50.026 11.6932C49.5979 11.6932 49.2381 11.786 48.9464 11.9716C48.6585 12.1572 48.5165 12.3977 48.5203 12.6932C48.5165 12.947 48.6093 13.1534 48.7987 13.3125C48.9919 13.4716 49.3101 13.6023 49.7532 13.7045L51.2419 14.0227C52.0676 14.2008 52.6813 14.483 53.0828 14.8693C53.4881 15.2557 53.6926 15.7614 53.6964 16.3864C53.6926 16.9356 53.5316 17.4205 53.2135 17.8409C52.8991 18.2576 52.4616 18.5833 51.901 18.8182C51.3404 19.053 50.6964 19.1705 49.9691 19.1705C48.901 19.1705 48.0411 18.947 47.3896 18.5C46.7381 18.0492 46.3498 17.4223 46.2248 16.6193L48.2305 16.4261C48.3214 16.8201 48.5146 17.1174 48.8101 17.3182C49.1055 17.5189 49.49 17.6193 49.9635 17.6193C50.4521 17.6193 50.8441 17.5189 51.1396 17.3182C51.4388 17.1174 51.5885 16.8693 51.5885 16.5739C51.5885 16.3239 51.4919 16.1174 51.2987 15.9545C51.1093 15.7917 50.8138 15.6667 50.4123 15.5795L48.9237 15.267C48.0866 15.0928 47.4673 14.7992 47.0657 14.3864C46.6642 13.9697 46.4654 13.4432 46.4691 12.8068C46.4654 12.2689 46.6112 11.803 46.9066 11.4091C47.2059 11.0114 47.6207 10.7045 48.151 10.4886C48.6851 10.2689 49.3006 10.1591 49.9976 10.1591C51.0203 10.1591 51.8252 10.3769 52.4123 10.8125C53.0032 11.2481 53.3688 11.8371 53.5089 12.5795ZM59.0761 19.1705C58.2011 19.1705 57.4454 18.9886 56.809 18.625C56.1765 18.2576 55.6897 17.7386 55.3488 17.0682C55.0079 16.3939 54.8374 15.6004 54.8374 14.6875C54.8374 13.7898 55.0079 13.0019 55.3488 12.3239C55.6935 11.642 56.1746 11.1117 56.792 10.733C57.4094 10.3504 58.1348 10.1591 58.9681 10.1591C59.506 10.1591 60.0136 10.2462 60.4909 10.4205C60.9719 10.5909 61.3962 10.8561 61.7636 11.2159C62.1348 11.5758 62.4265 12.0341 62.6386 12.5909C62.8507 13.1439 62.9568 13.803 62.9568 14.5682V15.1989H55.8034V13.8125H60.9852C60.9814 13.4186 60.8962 13.0682 60.7295 12.7614C60.5628 12.4508 60.3299 12.2064 60.0306 12.0284C59.7352 11.8504 59.3905 11.7614 58.9965 11.7614C58.5761 11.7614 58.2068 11.8636 57.8886 12.0682C57.5704 12.2689 57.3223 12.5341 57.1443 12.8636C56.97 13.1894 56.881 13.5473 56.8772 13.9375V15.1477C56.8772 15.6553 56.97 16.0909 57.1556 16.4545C57.3412 16.8144 57.6007 17.0909 57.934 17.2841C58.2674 17.4735 58.6575 17.5682 59.1045 17.5682C59.4037 17.5682 59.6746 17.5265 59.917 17.4432C60.1594 17.3561 60.3696 17.2292 60.5477 17.0625C60.7257 16.8958 60.8602 16.6894 60.9511 16.4432L62.8715 16.6591C62.7503 17.1667 62.5193 17.6098 62.1784 17.9886C61.8412 18.3636 61.4094 18.6553 60.8829 18.8636C60.3564 19.0682 59.7541 19.1705 59.0761 19.1705ZM64.5168 19V10.2727H66.5111V11.7273H66.602C66.7611 11.2235 67.0339 10.8352 67.4202 10.5625C67.8104 10.286 68.2555 10.1477 68.7555 10.1477C68.8691 10.1477 68.996 10.1534 69.1361 10.1648C69.2801 10.1723 69.3994 10.1856 69.4941 10.2045V12.0966C69.407 12.0663 69.2687 12.0398 69.0793 12.017C68.8937 11.9905 68.7138 11.9773 68.5395 11.9773C68.1645 11.9773 67.8274 12.0587 67.5282 12.2216C67.2327 12.3807 66.9998 12.6023 66.8293 12.8864C66.6589 13.1705 66.5736 13.4981 66.5736 13.8693V19H64.5168ZM75.5797 13.3068V15H70.3411V13.3068H75.5797ZM77.5631 22.2727V10.2727H79.5858V11.7159H79.7051C79.8112 11.5038 79.9608 11.2784 80.154 11.0398C80.3472 10.7973 80.6085 10.5909 80.9381 10.4205C81.2676 10.2462 81.6881 10.1591 82.1994 10.1591C82.8737 10.1591 83.4816 10.3314 84.0233 10.6761C84.5687 11.017 85.0006 11.5227 85.3187 12.1932C85.6407 12.8598 85.8017 13.678 85.8017 14.6477C85.8017 15.6061 85.6445 16.4205 85.3301 17.0909C85.0157 17.7614 84.5877 18.2727 84.046 18.625C83.5044 18.9773 82.8907 19.1534 82.2051 19.1534C81.7051 19.1534 81.2903 19.0701 80.9608 18.9034C80.6312 18.7367 80.3661 18.536 80.1653 18.3011C79.9684 18.0625 79.815 17.8371 79.7051 17.625H79.6199V22.2727H77.5631ZM79.5801 14.6364C79.5801 15.2008 79.6597 15.6951 79.8187 16.1193C79.9816 16.5436 80.2146 16.875 80.5176 17.1136C80.8244 17.3485 81.1956 17.4659 81.6312 17.4659C82.0858 17.4659 82.4665 17.3447 82.7733 17.1023C83.0801 16.8561 83.3112 16.5208 83.4665 16.0966C83.6256 15.6686 83.7051 15.1818 83.7051 14.6364C83.7051 14.0947 83.6275 13.6136 83.4722 13.1932C83.3169 12.7727 83.0858 12.4432 82.779 12.2045C82.4722 11.9659 82.0896 11.8466 81.6312 11.8466C81.1919 11.8466 80.8187 11.9621 80.5119 12.1932C80.2051 12.4242 79.9722 12.7481 79.8131 13.1648C79.6578 13.5814 79.5801 14.072 79.5801 14.6364ZM87.3831 19V10.2727H89.3774V11.7273H89.4683C89.6274 11.2235 89.9001 10.8352 90.2865 10.5625C90.6766 10.286 91.1217 10.1477 91.6217 10.1477C91.7353 10.1477 91.8622 10.1534 92.0024 10.1648C92.1463 10.1723 92.2656 10.1856 92.3603 10.2045V12.0966C92.2732 12.0663 92.135 12.0398 91.9456 12.017C91.76 11.9905 91.58 11.9773 91.4058 11.9773C91.0308 11.9773 90.6937 12.0587 90.3944 12.2216C90.099 12.3807 89.866 12.6023 89.6956 12.8864C89.5251 13.1705 89.4399 13.4981 89.4399 13.8693V19H87.3831ZM96.9943 19.1705C96.142 19.1705 95.4034 18.983 94.7784 18.608C94.1534 18.233 93.6685 17.7083 93.3238 17.0341C92.9829 16.3598 92.8124 15.572 92.8124 14.6705C92.8124 13.7689 92.9829 12.9792 93.3238 12.3011C93.6685 11.6231 94.1534 11.0966 94.7784 10.7216C95.4034 10.3466 96.142 10.1591 96.9943 10.1591C97.8465 10.1591 98.5852 10.3466 99.2102 10.7216C99.8352 11.0966 100.318 11.6231 100.659 12.3011C101.004 12.9792 101.176 13.7689 101.176 14.6705C101.176 15.572 101.004 16.3598 100.659 17.0341C100.318 17.7083 99.8352 18.233 99.2102 18.608C98.5852 18.983 97.8465 19.1705 96.9943 19.1705ZM97.0056 17.5227C97.4677 17.5227 97.8541 17.3958 98.1647 17.142C98.4753 16.8845 98.7064 16.5398 98.8579 16.108C99.0132 15.6761 99.0909 15.1951 99.0909 14.6648C99.0909 14.1307 99.0132 13.6477 98.8579 13.2159C98.7064 12.7803 98.4753 12.4337 98.1647 12.1761C97.8541 11.9186 97.4677 11.7898 97.0056 11.7898C96.5321 11.7898 96.1382 11.9186 95.8238 12.1761C95.5132 12.4337 95.2802 12.7803 95.1249 13.2159C94.9734 13.6477 94.8977 14.1307 94.8977 14.6648C94.8977 15.1951 94.9734 15.6761 95.1249 16.108C95.2802 16.5398 95.5132 16.8845 95.8238 17.142C96.1382 17.3958 96.5321 17.5227 97.0056 17.5227ZM107.162 10.2727V11.8636H102.003V10.2727H107.162ZM103.293 19V9.44886C103.293 8.86174 103.414 8.37311 103.657 7.98295C103.903 7.5928 104.232 7.30114 104.645 7.10795C105.058 6.91477 105.516 6.81818 106.02 6.81818C106.376 6.81818 106.693 6.84659 106.969 6.90341C107.246 6.96023 107.45 7.01136 107.583 7.05682L107.174 8.64773C107.087 8.62121 106.977 8.5947 106.844 8.56818C106.712 8.53788 106.564 8.52273 106.401 8.52273C106.018 8.52273 105.747 8.61553 105.588 8.80114C105.433 8.98295 105.355 9.24432 105.355 9.58523V19H103.293ZM108.593 19V10.2727H110.65V19H108.593ZM109.627 9.03409C109.301 9.03409 109.021 8.92614 108.786 8.71023C108.551 8.49053 108.434 8.22727 108.434 7.92045C108.434 7.60985 108.551 7.34659 108.786 7.13068C109.021 6.91098 109.301 6.80114 109.627 6.80114C109.957 6.80114 110.237 6.91098 110.468 7.13068C110.703 7.34659 110.82 7.60985 110.82 7.92045C110.82 8.22727 110.703 8.49053 110.468 8.71023C110.237 8.92614 109.957 9.03409 109.627 9.03409ZM114.642 7.36364V19H112.585V7.36364H114.642ZM120.44 19.1705C119.565 19.1705 118.81 18.9886 118.173 18.625C117.541 18.2576 117.054 17.7386 116.713 17.0682C116.372 16.3939 116.202 15.6004 116.202 14.6875C116.202 13.7898 116.372 13.0019 116.713 12.3239C117.058 11.642 117.539 11.1117 118.156 10.733C118.774 10.3504 119.499 10.1591 120.332 10.1591C120.87 10.1591 121.378 10.2462 121.855 10.4205C122.336 10.5909 122.761 10.8561 123.128 11.2159C123.499 11.5758 123.791 12.0341 124.003 12.5909C124.215 13.1439 124.321 13.803 124.321 14.5682V15.1989H117.168V13.8125H122.35C122.346 13.4186 122.261 13.0682 122.094 12.7614C121.927 12.4508 121.694 12.2064 121.395 12.0284C121.1 11.8504 120.755 11.7614 120.361 11.7614C119.94 11.7614 119.571 11.8636 119.253 12.0682C118.935 12.2689 118.687 12.5341 118.509 12.8636C118.334 13.1894 118.245 13.5473 118.242 13.9375V15.1477C118.242 15.6553 118.334 16.0909 118.52 16.4545C118.706 16.8144 118.965 17.0909 119.298 17.2841C119.632 17.4735 120.022 17.5682 120.469 17.5682C120.768 17.5682 121.039 17.5265 121.281 17.4432C121.524 17.3561 121.734 17.2292 121.912 17.0625C122.09 16.8958 122.225 16.6894 122.315 16.4432L124.236 16.6591C124.115 17.1667 123.884 17.6098 123.543 17.9886C123.206 18.3636 122.774 18.6553 122.247 18.8636C121.721 19.0682 121.118 19.1705 120.44 19.1705ZM131.171 13.3068V15H125.932V13.3068H131.171ZM137.433 19.2216C136.497 19.2216 135.694 18.9848 135.024 18.5114C134.357 18.0341 133.844 17.3466 133.484 16.4489C133.128 15.5473 132.95 14.4621 132.95 13.1932C132.954 11.9242 133.133 10.8447 133.49 9.95455C133.849 9.06061 134.363 8.37879 135.029 7.90909C135.7 7.43939 136.501 7.20455 137.433 7.20455C138.365 7.20455 139.166 7.43939 139.836 7.90909C140.507 8.37879 141.02 9.06061 141.376 9.95455C141.736 10.8485 141.916 11.928 141.916 13.1932C141.916 14.4659 141.736 15.553 141.376 16.4545C141.02 17.3523 140.507 18.0379 139.836 18.5114C139.169 18.9848 138.368 19.2216 137.433 19.2216ZM137.433 17.4432C138.16 17.4432 138.734 17.0852 139.154 16.3693C139.579 15.6496 139.791 14.5909 139.791 13.1932C139.791 12.2689 139.694 11.4924 139.501 10.8636C139.308 10.2348 139.035 9.76136 138.683 9.44318C138.33 9.12121 137.914 8.96023 137.433 8.96023C136.709 8.96023 136.137 9.32008 135.717 10.0398C135.296 10.7557 135.084 11.8068 135.08 13.1932C135.077 14.1212 135.169 14.9015 135.359 15.5341C135.552 16.1667 135.825 16.6439 136.177 16.9659C136.529 17.2841 136.948 17.4432 137.433 17.4432ZM148.356 7.36364V19H146.248V9.41477H146.18L143.459 11.1534V9.22159L146.351 7.36364H148.356Z"
        fill="currentColor" />
</svg>