<svg width="48" height="48" viewBox="0 0 48 48" fill="none" xmlns="http://www.w3.org/2000/svg">
<path d="M34.6667 31.3158C31.7211 31.3158 29.3333 33.7075 29.3333 36.6578C29.3333 39.6081 31.7211 41.9998 34.6667 41.9998C37.6122 41.9998 40 39.6081 40 36.6578C40 33.7075 37.6122 31.3158 34.6667 31.3158ZM34.6667 31.3158L34.6667 7.8664M13.3334 18.5504C10.3878 18.5504 8 16.1586 8 13.2084C8 10.2582 10.3878 7.8664 13.3334 7.8664C16.2788 7.8664 18.6666 10.2582 18.6666 13.2084C18.6666 16.1586 16.2788 18.5504 13.3334 18.5504ZM13.3334 18.5504L13.3334 31.2446C13.3334 34.1901 15.7212 36.5779 18.6666 36.5779H21.8666" stroke="black" stroke-width="3.5" stroke-linecap="round" stroke-linejoin="round"/>
</svg>
