<svg width="72" height="72" viewBox="0 0 72 72" fill="none" xmlns="http://www.w3.org/2000/svg">
<path d="M52 46.9738C47.5817 46.9738 44 50.5614 44 54.9868C44 59.4122 47.5817 62.9998 52 62.9998C56.4183 62.9998 60 59.4122 60 54.9868C60 50.5614 56.4183 46.9738 52 46.9738ZM52 46.9738L52 11.7997M20.0001 27.8257C15.5817 27.8257 12 24.238 12 19.8127C12 15.3874 15.5817 11.7997 20.0001 11.7997C24.4182 11.7997 27.9999 15.3874 27.9999 19.8127C27.9999 24.238 24.4182 27.8257 20.0001 27.8257ZM20.0001 27.8257L20.0001 46.867C20.0001 51.2853 23.5818 54.867 27.9999 54.867H32.7999" stroke="black" stroke-width="5" stroke-linecap="round" stroke-linejoin="round"/>
</svg>
