<svg width="24" height="24" viewBox="0 0 24 24" fill="none" xmlns="http://www.w3.org/2000/svg">
<path d="M17.3333 15.658C15.8606 15.658 14.6667 16.8539 14.6667 18.329C14.6667 19.8042 15.8606 21 17.3333 21C18.8061 21 20 19.8042 20 18.329C20 16.8539 18.8061 15.658 17.3333 15.658ZM17.3333 15.658L17.3333 3.93332M6.6667 9.27532C5.1939 9.27532 4 8.07942 4 6.60432C4 5.12922 5.1939 3.93332 6.6667 3.93332C8.1394 3.93332 9.3333 5.12922 9.3333 6.60432C9.3333 8.07942 8.1394 9.27532 6.6667 9.27532ZM6.6667 9.27532L6.6667 15.6224C6.6667 17.0952 7.8606 18.2891 9.3333 18.2891H10.9333" stroke="black" stroke-width="2" stroke-linecap="round" stroke-linejoin="round"/>
</svg>
